<svg width="1035" height="1136" viewBox="0 0 1035 1136" fill="none" xmlns="http://www.w3.org/2000/svg">
<g id="carrots12carrotsmix 1">
<g id="layer10">
<g id="g5140">
<path id="path257301" d="M647.76 450.33C653.108 460.258 653.234 549.893 652.682 550.267C632.285 564.089 558.777 566.753 531.941 567.681C528.378 567.804 484.231 565.981 483.876 564.618C482.632 559.841 476.613 453.501 477.928 451.817C479.208 450.18 494.709 451.173 496.798 451.117C533.711 450.133 571.572 444.277 608.72 446.129C610.226 446.204 668.216 438.809 647.76 450.33Z" fill="white" stroke="black" stroke-width="12" stroke-linecap="round" stroke-linejoin="round"/>
<path id="path4424" d="M645.205 443.421C645.778 445.719 688.415 433.598 688.415 433.969C688.415 477.223 680.425 519.919 691.56 564.71C701.356 604.114 722.258 637.429 726.839 678.473C730.943 715.249 736.974 760.263 731.761 796.963C727.584 826.371 721.643 853.516 721.643 883.598C721.643 893.308 719.222 1016.09 718.498 1016.09C700.781 1016.09 601.592 1023.8 593.243 1013.11C586.624 1004.64 578.018 810.965 545.111 874.147C532.051 899.222 530.44 946.626 531.71 974.259C532.344 988.051 529.796 1001.43 529.796 1014.86C529.796 1016.79 528.883 1022.16 530.069 1020.64C535.218 1014.05 493.276 1014.44 488.774 1016.09C484.85 1017.52 416.224 1016.51 413.84 1013.46C410.333 1008.97 411.665 927.9 411.105 919.302C407.024 856.604 398.154 788.171 404.268 725.554C407.94 687.957 424.523 654.113 433.531 617.216C438.76 595.796 437.831 574.236 439.957 552.459C442.366 527.79 445.904 503.296 448.299 478.775C449.258 468.95 451.033 459.052 451.033 449.196C451.033 446.557 447.573 441.32 450.213 441.32C454.959 441.32 456.65 448.734 461.016 450.596C466.283 452.844 486.865 446.053 489.868 449.896C491.908 452.508 487.427 459.794 486.723 462.498C481.849 481.213 486.572 502.419 488.5 521.48L492.466 560.685C494.079 576.638 650.724 554.591 651.358 553.509C656.392 544.919 649.553 517.454 651.221 506.778C654.416 486.336 656.534 461.788 645.205 443.421Z" fill="#046D9D" stroke="black" stroke-width="18" stroke-linecap="round" stroke-linejoin="round"/>
<path id="path4545" d="M448.709 463.723C426.912 445.233 395.842 448.264 369.399 441.495C343.078 434.757 319.633 421.662 292.004 415.767C284.915 414.255 276.783 406.491 269.852 406.491C266.808 406.491 264.155 429.361 263.426 432.394C260.844 443.132 245.484 473.994 250.982 484.55C251.11 484.797 261.925 485.227 263.426 485.776C269.728 488.08 273.907 493.631 279.698 496.102C319.742 513.186 365.039 529.586 403.721 549.658C410.73 553.295 437.013 572.411 443.376 572.411C445.683 572.411 441.582 568.064 441.462 565.76C440.97 556.321 440.57 546.904 441.188 537.407C442.804 512.585 447.561 488.697 448.709 463.723Z" fill="white" stroke="black" stroke-width="12" stroke-linecap="round" stroke-linejoin="round"/>
<path id="path6483" d="M548.249 670.363C550.878 669.007 551.685 668.932 553.787 670.188C556.161 671.606 576.025 689.463 575.666 690.841C573.958 697.397 551.978 696.126 547.019 697.316C536.353 699.876 527.832 707.493 517.483 709.83C509.999 711.521 501.794 708.337 494.374 707.905C483.37 707.265 469.905 710.099 459.3 711.231C446.65 712.58 433.516 720.968 419.508 718.406C409.605 716.596 404.302 710.522 396.809 704.317C376.851 687.788 376.566 675.179 386.486 651.373C387.515 648.903 390.607 638.306 393.801 637.722C421.333 632.688 485.723 647.774 512.423 656.974C524.965 661.296 535.214 668.88 548.249 670.363Z" fill="#F6AB00" stroke="black" stroke-width="12" stroke-linecap="round" stroke-linejoin="round"/>
<path id="path6485" d="M459.573 603.155C476.234 602.269 491.221 614.402 506.407 620.045C513.889 622.825 524.179 618.52 531.43 622.232C543.107 628.211 557.555 630.334 568.555 637.022C579.371 643.598 626.865 661.671 627.832 672.814C628.841 684.436 594.68 684.298 586.537 687.078C575.912 690.704 569.102 683.577 562.47 675.089C557.483 668.706 546.131 668.873 539.019 666.513C527.642 662.737 515.757 657.362 504.151 654.611C484.248 649.894 444.44 650.581 428.533 638.947C414.215 628.475 447.478 601.838 459.573 603.155Z" fill="#F6AB00" stroke="black" stroke-width="12" stroke-linecap="round" stroke-linejoin="round"/>
<path id="path6487" d="M496.698 567.101C520.659 568.836 540.847 583.296 563.086 591.429C578.091 596.916 595.329 608.772 610.808 609.894C614.274 610.145 664.413 640.679 673.982 646.123C676.951 647.812 679.478 650.778 682.46 652.686C683.071 653.077 686.9 653.332 686.767 654.349C686.535 656.135 639.007 672.12 632.823 673.251C632.213 673.363 626.938 665.532 626.26 664.85C619.546 658.099 612.4 655.076 604.997 649.973C594.148 642.496 542.323 624 526.713 618.82C511.858 613.89 483.04 612.621 471.538 601.58C466.569 596.81 495.087 569.661 496.698 567.101Z" fill="#F6AB00" stroke="black" stroke-width="12" stroke-linecap="round" stroke-linejoin="round"/>
<path id="path5097" d="M732.391 689.927C731.852 703.023 729.619 715.907 726.785 728.607C702.582 837.033 499.927 840.411 437.305 766.937C433.595 762.584 423.574 752.147 422.811 746.284C422.714 745.544 448.419 743.042 468.482 738.933C524.477 727.466 577.752 715.857 635.168 713.03C645.948 712.499 747.098 653.222 732.391 689.927Z" fill="white" stroke="black" stroke-width="12" stroke-linecap="round" stroke-linejoin="round"/>
<path id="path5099" d="M424.315 744.709C408.941 743.699 380.978 735.414 394.095 713.03C394.468 712.395 402.182 713.016 403.393 713.03C420.854 713.238 444.594 716.769 465.186 712.048C502.465 703.499 535.948 700.719 562.513 694.964C572.127 692.882 579.332 691.87 586.934 690.023C613.584 683.548 730.812 640.435 749.894 652.648C752.235 654.147 752.683 666.579 750.851 668.925C750.104 669.881 645.005 711.665 636.536 713.73C625.075 716.525 429.552 746.08 424.315 744.709Z" fill="white" stroke="black" stroke-width="12" stroke-linecap="round" stroke-linejoin="round"/>
<g id="path4571">
<path d="M694.021 750.582C707.099 743.301 841.714 693.145 825.155 677.248C820.352 672.638 787.476 639.272 783.723 641.194C778.563 643.836 775.406 658.071 769.502 662.722C745.403 681.703 701.705 702.851 682.398 717.678" fill="#FFF4D6"/>
<path d="M694.021 750.582C707.099 743.301 841.714 693.145 825.155 677.248C820.352 672.638 787.476 639.272 783.723 641.194C778.563 643.836 775.406 658.071 769.502 662.722C745.403 681.703 701.705 702.851 682.398 717.678" stroke="black" stroke-width="12" stroke-linecap="round" stroke-linejoin="round"/>
</g>
<g id="path4645">
<path d="M682.959 713.855C679.828 705.42 659.31 684.869 648.091 689.177C642.145 691.46 635.153 693.063 628.81 694.078C623.526 694.923 613.682 694.583 610.692 699.941C599.396 720.183 627.565 718.774 638.177 718.231C644.561 717.904 655.899 719.95 652.74 716.918C650.559 714.825 643.848 718.531 641.39 718.668C634.136 719.072 628.531 716.655 621.563 716.655C612.818 716.655 604.096 720.043 595.309 719.106C580.311 717.506 559.935 711.417 555.176 729.694C550.009 749.536 610.694 745.096 619.17 745.096C627.612 745.096 635.527 742.88 643.578 742.558C647.132 742.416 657.665 743.269 654.244 742.296C643.412 739.215 631.275 745.446 619.922 745.446C607.48 745.446 560.578 729.973 563.927 755.685C566.617 776.34 587.872 761.19 598.454 760.148C610.581 758.954 622.277 760.873 634.69 758.31C636.132 758.013 654.039 753.997 654.039 754.372C654.039 756.629 638.581 759.108 636.604 759.798C625.167 763.79 571.455 749.837 572.952 770.912C573.121 773.287 574.249 782.243 576.712 783.426C580.135 785.068 583.802 780.042 586.626 779.138C592.932 777.12 600.765 777.984 607.41 776.337C624.154 772.189 642.343 773.713 659.098 770.649C664.151 769.725 641.713 776.863 636.536 776.863C631.904 776.863 574.866 778.862 574.866 779.838C574.866 809.962 624.866 792.695 640.433 787.714C648.715 785.064 659.23 785.461 666.961 781.063C675.721 776.079 695.74 754.495 698.411 747.371" fill="#FFF4D6"/>
<path d="M682.959 713.855C679.828 705.42 659.31 684.869 648.091 689.177C642.145 691.46 635.153 693.063 628.81 694.078C623.526 694.923 613.682 694.583 610.692 699.941C599.396 720.183 627.565 718.774 638.177 718.231C644.561 717.904 655.899 719.95 652.74 716.918C650.559 714.825 643.848 718.531 641.39 718.668C634.136 719.072 628.531 716.655 621.563 716.655C612.818 716.655 604.096 720.043 595.309 719.106C580.311 717.506 559.935 711.417 555.176 729.694C550.009 749.536 610.694 745.096 619.17 745.096C627.612 745.096 635.527 742.88 643.578 742.558C647.132 742.416 657.665 743.269 654.244 742.296C643.412 739.215 631.275 745.446 619.922 745.446C607.48 745.446 560.578 729.973 563.927 755.685C566.617 776.34 587.872 761.19 598.454 760.148C610.581 758.954 622.277 760.873 634.69 758.31C636.132 758.013 654.039 753.997 654.039 754.372C654.039 756.629 638.581 759.108 636.604 759.798C625.167 763.79 571.455 749.837 572.952 770.912C573.121 773.287 574.249 782.243 576.712 783.426C580.135 785.068 583.802 780.042 586.626 779.138C592.932 777.12 600.765 777.984 607.41 776.337C624.154 772.189 642.343 773.713 659.098 770.649C664.151 769.725 641.713 776.863 636.536 776.863C631.904 776.863 574.866 778.862 574.866 779.838C574.866 809.962 624.866 792.695 640.433 787.714C648.715 785.064 659.23 785.461 666.961 781.063C675.721 776.079 695.74 754.495 698.411 747.371" stroke="black" stroke-width="8" stroke-linecap="round" stroke-linejoin="round"/>
</g>
<path id="path6489" d="M478.922 582.765C475.422 557.818 450.084 566.76 441.318 561.15C440.858 560.856 441.21 555.918 440.156 554.937C428.132 543.744 419.807 542.101 406.723 546.886C405.946 547.17 395.27 533.538 393.528 532.184C380.414 521.994 374.928 540.997 371.307 534.46L363.65 520.633C351.714 499.082 335.99 520.458 332.063 538.048C328.663 553.278 353.639 550.099 362.351 564.038C363.523 565.913 362.922 571.598 364.675 570.251C372.684 564.101 378.896 553.799 392.434 563.425C398.516 567.75 407.014 589.245 409.048 589.679C410.03 589.888 413.574 586.499 416.09 586.878C429.288 588.866 428.752 617.484 436.806 612.694L448.429 605.781C454.49 602.176 463.688 607.029 469.282 604.643C473.442 602.868 478.548 586.831 478.922 582.765Z" fill="#75BA29" stroke="black" stroke-width="12" stroke-linecap="round" stroke-linejoin="round"/>
<g id="path6491">
<path d="M281.332 544.786C277.055 541.83 275.276 545.102 273.538 549.074C266.454 565.265 281.993 561.398 290.22 566.663C291.904 567.741 292.157 571.995 294.049 572.964C296.551 574.245 298.342 568.912 301.091 568.326C305.668 567.35 310.413 569.678 314.56 570.951C323.683 573.754 327.75 584.422 333.088 591.254C334.553 593.129 336.932 587.846 339.31 587.753C345.346 587.519 351.459 590.624 355.992 594.492C360.314 598.18 360.813 605.211 364.128 609.456C365.83 611.634 372.613 613.821 375.273 616.544C380.945 622.352 386.95 635.076 394.006 638.947C395.49 639.761 397.565 637.305 399.271 637.809C416.707 642.959 424.119 637.707 429.354 621.795C430.731 617.609 433.59 615.552 432.499 610.244C431.518 605.474 426.271 601.029 423.61 596.942C415.372 584.287 409.725 591.018 408.843 590.641C408.258 590.392 399.529 567.832 385.597 562.2C381.762 560.651 373.434 559.046 369.666 561.238C367.617 562.43 367.229 569.057 365.769 567.188C360.231 560.099 353.697 548.952 343.686 545.748C340.955 544.875 333.369 548.992 332.131 547.936C323.958 540.962 317.816 528.968 304.236 533.935C301.398 534.973 302.367 539.757 300.749 540.585C298.888 541.538 298.151 536.965 296.168 536.297C294.655 535.787 288.412 536.519 288.237 536.385C279.622 529.768 280.33 536.041 276.615 544.873" fill="#75BA29"/>
<path d="M281.332 544.786C277.055 541.83 275.276 545.102 273.538 549.074C266.454 565.265 281.993 561.398 290.22 566.663C291.904 567.741 292.157 571.995 294.049 572.964C296.551 574.245 298.342 568.912 301.091 568.326C305.668 567.35 310.413 569.678 314.56 570.951C323.683 573.754 327.75 584.422 333.088 591.254C334.553 593.129 336.932 587.846 339.31 587.753C345.346 587.519 351.459 590.624 355.992 594.492C360.314 598.18 360.813 605.211 364.128 609.456C365.83 611.634 372.613 613.821 375.273 616.544C380.945 622.352 386.95 635.076 394.006 638.947C395.49 639.761 397.565 637.305 399.271 637.809C416.707 642.959 424.119 637.707 429.354 621.795C430.731 617.609 433.59 615.552 432.499 610.244C431.518 605.474 426.271 601.029 423.61 596.942C415.372 584.287 409.725 591.018 408.843 590.641C408.258 590.392 399.529 567.832 385.597 562.2C381.762 560.651 373.434 559.046 369.666 561.238C367.617 562.43 367.229 569.057 365.769 567.188C360.231 560.099 353.697 548.952 343.686 545.748C340.955 544.875 333.369 548.992 332.131 547.936C323.958 540.962 317.816 528.968 304.236 533.935C301.398 534.973 302.367 539.757 300.749 540.585C298.888 541.538 298.151 536.965 296.168 536.297C294.655 535.787 288.412 536.519 288.237 536.385C279.622 529.768 280.33 536.041 276.615 544.873" stroke="black" stroke-width="12" stroke-linecap="round" stroke-linejoin="round"/>
</g>
<path id="path6493" d="M240.036 580.403C243.526 586.905 235.559 599.335 241.677 604.555C244.343 606.83 251.703 602.198 252.275 608.056C252.827 613.718 248.868 630.057 253.71 634.396C256.097 636.535 270.63 632.543 270.871 633.084C275.786 644.093 274.318 644.88 286.255 649.973C291.026 652.009 298.861 654.052 304.031 652.949C305.094 652.722 312.195 646.022 312.782 646.648C313.965 647.909 313.827 651.761 314.97 653.386C318.227 658.018 329.992 661.771 335.345 662.75C338.4 663.309 341.762 662.854 344.369 661.087C345.398 660.39 346.379 657.129 346.831 658.287C353.922 676.439 346.506 669.339 362.829 671.238C366.076 671.616 368.893 673.873 372.265 673.514C379.793 672.711 390.343 642.119 388.742 635.972C383.236 614.833 361.802 609.95 360.231 607.268C355.991 600.03 357.791 597.903 350.591 590.991C347.37 587.9 341.025 585.525 336.575 586.791C334.259 587.45 331.499 593.792 331.037 591.429C324.332 557.09 298.341 574.874 294.596 572.877C288.597 569.677 281.747 557.444 273.401 559.225C271.833 559.56 260.122 581.197 259.522 581.453C253.697 583.938 248.081 567.165 240.036 580.403Z" fill="#75BA29" stroke="black" stroke-width="12" stroke-linecap="round" stroke-linejoin="round"/>
<g id="path3419">
<path d="M713.155 239.001C761.188 202.882 767.955 289.546 712.061 274.093Z" fill="#FFF4D6"/>
<path d="M713.155 239.001C761.188 202.882 767.955 289.546 712.061 274.093" stroke="black" stroke-width="18" stroke-linecap="round" stroke-linejoin="round"/>
</g>
<g id="path3421">
<path d="M426.137 250.378C379.817 246.093 391.672 290.47 421.488 302.972Z" fill="#FFF4D6"/>
<path d="M426.137 250.378C379.817 246.093 391.672 290.47 421.488 302.972" stroke="black" stroke-width="18" stroke-linecap="round" stroke-linejoin="round"/>
</g>
<path id="path3417" d="M704.335 146.853C709.133 221.531 708.4 297.419 715.685 372.017C724.92 466.582 556.127 450.797 488.832 453.489C482.391 453.747 441.262 453.414 437.897 445.876C412.769 389.597 426.137 258.295 426.137 194.196C426.137 188.588 427.062 143.804 432.427 141.515C446.674 135.435 496.547 156.908 512.762 159.804C540.72 164.798 570.625 159.366 598.908 158.317C622.715 157.434 691.401 132.491 704.335 146.853Z" fill="#FFF4D6" stroke="black" stroke-width="18" stroke-linecap="round" stroke-linejoin="round"/>
<path id="path3423" d="M428.53 140.727C416.676 144.959 351.395 108.113 360.091 100.91C377.495 86.4959 570.03 111.133 590.772 115.874C598.424 117.623 715.658 129.051 706.797 146.065C704.822 149.855 672.543 145.964 666.526 146.853C642.654 150.379 621.762 161.02 597.267 162.692C578.125 163.999 559.686 162.438 540.657 160.155C502.357 155.559 466.522 142.271 428.53 140.727Z" fill="#046D9D" stroke="black" stroke-width="18" stroke-linecap="round" stroke-linejoin="round"/>
<path id="path3425" d="M427.367 85.0706C437.293 32.5998 425.886 20.8113 495.533 13.2245C520.343 10.5219 552.943 11.7034 578.124 15.3248C600.3 18.514 626.677 15.3036 647.725 20.4004C665.175 24.6262 692.46 19.0375 706.865 34.402C715.384 43.4892 719.658 131.302 704.609 136.439C692.008 140.74 547.183 101.702 512.42 103.01C493.523 103.721 418.433 110.336 427.367 85.0706Z" fill="#046D9D" stroke="black" stroke-width="18" stroke-linecap="round" stroke-linejoin="round"/>
<path id="path5122" fill-rule="evenodd" clip-rule="evenodd" d="M639.961 176.883L653.113 188.348L649.74 217.352L631.192 234.551L623.436 232.863L610.957 216.676L609.61 199.477L611.633 190.371L622.086 177.219L639.961 176.883ZM493.598 186.662L506.75 198.129L503.377 227.131L484.828 244.33L477.072 242.645L464.594 226.457L463.246 209.258L465.27 200.152L475.723 187L493.598 186.662Z" fill="white"/>
<path id="path3429" d="M631.906 175.381C688.433 189.299 611.532 286.307 611.532 194.284C611.532 180.803 621.101 177.989 631.906 175.381Z" stroke="black" stroke-width="12" stroke-linecap="round" stroke-linejoin="round"/>
<path id="path3433" d="M471.988 236.113C431.515 166.388 548.632 178.416 496.191 238.826C488.893 247.233 478.42 240.118 471.988 236.113Z" stroke="black" stroke-width="12" stroke-linecap="round" stroke-linejoin="round"/>
<path id="path3435" d="M560.528 218.436C552.746 238.528 532.124 294.747 526.137 338.326C524.782 348.195 546.054 337.523 556.015 337.626" stroke="black" stroke-width="12" stroke-linecap="round" stroke-linejoin="round"/>
<g id="mouth">
<path id="path3437" d="M652.873 379C654.925 412.174 631.813 414.401 608.113 419.273" stroke="black" stroke-width="12" stroke-linecap="round" stroke-linejoin="round"/>
</g>
<path id="path4539" d="M707.422 1017.31C716.643 1030.33 712.891 1046.93 712.891 1062.12C712.891 1076.55 711.633 1097.19 706.328 1110.77C703.762 1117.34 561.017 1132.42 554.546 1115.85C540.534 1079.98 594.635 1106.55 595.705 1090.12C596.979 1070.55 597.346 1050.97 597.346 1031.32C597.346 1029.49 594.853 1013.71 595.431 1013.46C616.671 1004.4 667.581 1040.59 707.422 1017.31Z" fill="black" stroke="black" stroke-width="18" stroke-linecap="round" stroke-linejoin="round"/>
<path id="path4541" d="M528.292 1010.66C532.918 1025.84 526.032 1040.2 524.736 1055.12C523.45 1069.94 532.077 1093.85 522.002 1106.75C517.279 1112.79 376.928 1118.66 367.212 1106.22C334.501 1064.36 417.632 1089.3 423.412 1081.9C427.908 1076.14 417.488 1016.79 421.224 1016.79C435.451 1016.79 537.714 1046.84 528.292 1010.66Z" fill="black" stroke="black" stroke-width="18" stroke-linecap="round" stroke-linejoin="round"/>
<path id="path4547" d="M270.536 414.892C272.985 392.21 263.984 432.129 262.195 439.57C259.569 450.495 255.264 478.136 247.29 486.301C245.927 487.696 240 483.191 238.265 482.45C213.175 471.745 214.909 463.797 222.267 435.545C224.905 425.413 229.459 402.029 236.761 394.24C247.391 382.901 273.03 403.187 270.536 414.892Z" fill="white" stroke="black" stroke-width="12" stroke-linecap="round" stroke-linejoin="round"/>
<path id="path4551" d="M241.821 461.623C240.829 454.258 234.093 448.39 228.01 444.121" stroke="black" stroke-width="12" stroke-linecap="round" stroke-linejoin="round"/>
<path id="path4553" d="M691.286 444.471C714.017 462.411 740.473 479.074 758.563 502.228C774.962 523.218 860.731 596.591 856.879 621.242C855.333 631.138 783.851 625.786 771.553 617.916C764.762 613.571 759.186 601.973 753.777 596.039C737.534 578.219 730.549 560.749 717.13 591.663C716.632 592.812 709.043 606.765 708.105 606.365C685.039 596.525 683.434 464.571 691.286 444.471Z" fill="white" stroke="black" stroke-width="12" stroke-linecap="round" stroke-linejoin="round"/>
<path id="path4555" d="M859.34 622.992C866.919 633.637 863.197 645.548 865.357 657.296C875.75 713.83 777.25 642.157 775.108 638.044C773.562 635.074 776.91 618.802 779.484 616.166C781.691 613.906 842.195 638.303 859.34 622.992Z" fill="white" stroke="black" stroke-width="12" stroke-linecap="round" stroke-linejoin="round"/>
<path id="path4557" d="M813.942 636.119C815.235 640.362 815.257 645.077 814.353 649.42" stroke="black" stroke-width="12" stroke-linecap="round" stroke-linejoin="round"/>
<path id="path4563" d="M837.438 627.253C841.137 639.359 844.198 660.136 844.162 660.446" stroke="black" stroke-width="12" stroke-linecap="round" stroke-linejoin="round"/>
<path id="path4565" d="M213.105 461.098C202.321 454.048 190.834 448.389 178.51 445.521C150.221 438.938 130.115 442.023 141.18 410.867C142.307 407.691 146.265 396.335 149.521 395.64C154.126 394.657 166.806 402.095 171.673 403.341C190.772 408.23 233.883 405.669 226.779 435.545C224.291 446.01 221.905 454.549 213.105 461.098Z" fill="#FFF4D6" stroke="black" stroke-width="12" stroke-linecap="round" stroke-linejoin="round"/>
<path id="path4922" d="M232.714 414.133C240.782 420.281 245.304 433.5 251.243 438.286" stroke="black" stroke-width="12" stroke-linecap="round" stroke-linejoin="round"/>
<g id="leftEye">
<path id="ellipse97614" d="M625.086 210.73C620.671 210.73 617.091 206.889 617.091 202.152C617.091 197.414 620.671 193.573 625.086 193.573C629.501 193.573 633.081 197.414 633.081 202.152C633.081 206.889 629.501 210.73 625.086 210.73Z" fill="black" stroke="black" stroke-width="12" stroke-linecap="round" stroke-linejoin="round"/>
</g>
<g id="rightEye">
<path id="path97532" d="M479.821 217.956C475.406 217.956 471.826 214.115 471.826 209.377C471.826 204.639 475.406 200.798 479.821 200.798C484.237 200.798 487.816 204.639 487.816 209.377C487.816 214.115 484.237 217.956 479.821 217.956Z" fill="black" stroke="black" stroke-width="12" stroke-linecap="round" stroke-linejoin="round"/>
</g>
</g>
<g id="carrotInHand">
<path id="path4610" d="M61.7906 375.231C59.9546 388.55 55.8269 416.562 61.5171 428.7C62.3276 430.429 120.942 443.603 127.221 442.264C129.76 441.722 131.597 439.942 131.597 437.276C131.597 423.121 113.938 419.652 104.248 415.223C97.5342 412.154 87.0976 413.473 87.2926 413.473C97.2014 413.473 126.258 424.646 131.05 423.624C135.843 422.602 133.558 406.263 131.665 404.109C129.394 401.525 89.0875 390.633 85.4466 390.633C85.1729 390.633 87.5459 391.201 88.1131 391.333C94.5095 392.821 100.287 395.77 106.641 397.021C111.508 397.979 136.282 409.717 140.28 406.647C142.165 405.199 141.232 399.778 141.442 397.633C143.575 375.784 124.652 382.41 110.402 378.119C109.876 377.96 92.7623 371.491 92.7623 373.131C92.7623 374.146 117.862 379.007 120.521 379.169C128.186 379.636 148.5 391.494 150.535 378.469C154.357 354.009 112.289 358.666 98.5737 357.204C70.0948 356.422 69.4981 351.566 61.7906 375.231Z" fill="#FFF4D6" stroke="black" stroke-width="8" stroke-linecap="round" stroke-linejoin="round"/>
<path id="path4926" d="M90.1624 353.488C91.6095 343.479 91.4496 342.582 87.2225 335.549C85.3054 332.359 89.5183 328.712 88.5215 325.31C86.7326 319.204 81.2072 313.068 80.3855 306.758C79.934 303.29 86.949 301.798 86.949 301.157C86.949 290.845 78.4428 285.576 81.0009 274.116C83.3897 263.415 92.7628 269.3 97.8883 262.74C103.346 255.754 89.8631 245.594 93.1024 239.375C96.8003 232.275 116.179 229.931 122.707 233.511C124.265 234.366 129.737 240.663 131.732 239.812C135.055 238.394 131.341 228.117 135.629 225.373C144.812 219.496 168.855 240.861 173.984 247.426C177.814 252.327 177.137 259.494 173.437 263.44C173.024 263.881 168.786 264.395 169.062 265.453C169.973 268.952 179.838 265.961 181.984 268.341C185.6 272.352 192.959 285.12 194.154 290.218C194.908 293.437 192.398 299.791 189.573 301.857C188.733 302.471 182.289 303.203 182.667 304.657C183.08 306.242 186.256 305.549 186.975 307.02C190.612 314.468 184.216 321.403 179.727 327.148C177.585 329.89 168.01 331.607 167.079 334.586C166.93 335.062 170.025 337.787 169.745 339.574C169.072 343.885 156.21 366.114 154.43 366.44C146.749 367.844 143.74 360.627 136.859 359.526C121.46 357.062 105.659 357.852 90.1624 353.488Z" fill="#75BA29" stroke="black" stroke-width="12" stroke-linecap="round" stroke-linejoin="round"/>
<path id="path4928" d="M107.392 443.67C110.2 460.645 95.9977 457.347 84.8979 455.572C83.017 455.271 77.9186 457.074 76.6935 456.447C75.8936 456.037 75.9233 451.397 75.8731 450.496C74.804 431.337 95.8575 433.828 107.392 443.67Z" fill="#75BA29" stroke="black" stroke-width="12" stroke-linecap="round" stroke-linejoin="round"/>
<path id="path4930" d="M106.024 461.785C110.529 458.88 114.648 460.569 119.015 462.923C123.762 465.481 128.839 468.011 130.501 473.861C134.751 488.821 119.465 551.153 117.716 570.561C115.64 593.58 105.272 622.086 105.272 642.932C105.272 661.955 89.1105 751.701 78.813 763.784C75.5901 767.565 62.219 784.724 54.9518 780.848C45.6393 775.882 44.3175 751.04 41.8931 741.731C31.6594 702.435 21.7984 658.569 21.0401 617.816C20.5902 593.636 24.0333 569.326 25.1423 545.183C26.0693 525.002 23.5295 474.69 38.6114 459.247C39.9997 457.826 43.3329 458.284 45.1064 458.11C54.2255 457.212 68.2031 452.428 76.8302 454.084C87.0639 456.049 95.4254 461.283 106.024 461.785Z" fill="#F6AB00" stroke="black" stroke-width="12" stroke-linecap="round" stroke-linejoin="round"/>
<path id="path4932" d="M64.1134 488.301C57.8235 492.33 45.5305 485.232 41.4145 490.751" stroke="black" stroke-width="12" stroke-linecap="round" stroke-linejoin="round"/>
<path id="path4934" d="M56.5243 513.854C51.1261 512.177 42.8668 512.047 39.1583 511.929" stroke="black" stroke-width="12" stroke-linecap="round" stroke-linejoin="round"/>
<path id="path4936" d="M52.5588 536.957C47.4963 541.759 39.4454 541 34.6459 538.794" stroke="black" stroke-width="12" stroke-linecap="round" stroke-linejoin="round"/>
<path id="path4938" d="M104.999 559.272C98.0348 559.017 86.4731 555.488 83.5305 552.446" stroke="black" stroke-width="12" stroke-linecap="round" stroke-linejoin="round"/>
<path id="path4940" d="M103.7 590.075C97.0793 589.962 89.3417 587.402 84.8979 584.65" stroke="black" stroke-width="12" stroke-linecap="round" stroke-linejoin="round"/>
<path id="path4942" d="M100.076 615.278C95.0042 615.465 89.6464 615.035 85.0347 612.916" stroke="black" stroke-width="12" stroke-linecap="round" stroke-linejoin="round"/>
</g>
</g>
</g>
</svg>
